<mxfile host="app.diagrams.net" modified="2024-04-08T19:55:58.208Z" agent="Mozilla/5.0 (Windows NT 10.0; Win64; x64) AppleWebKit/537.36 (KHTML, like Gecko) Chrome/122.0.0.0 Safari/537.36" etag="9uasBePHcwIXg6AMCEVs" version="24.2.3" type="github">
  <diagram id="C5RBs43oDa-KdzZeNtuy" name="Page-1">
    <mxGraphModel dx="2062" dy="665" grid="1" gridSize="10" guides="1" tooltips="1" connect="1" arrows="1" fold="1" page="1" pageScale="1" pageWidth="827" pageHeight="1169" math="0" shadow="0">
      <root>
        <mxCell id="WIyWlLk6GJQsqaUBKTNV-0" />
        <mxCell id="WIyWlLk6GJQsqaUBKTNV-1" parent="WIyWlLk6GJQsqaUBKTNV-0" />
        <mxCell id="MAND4tqDTdyMF2WOXjCk-0" value="Comprador" style="shape=umlActor;verticalLabelPosition=bottom;verticalAlign=top;html=1;outlineConnect=0;" vertex="1" parent="WIyWlLk6GJQsqaUBKTNV-1">
          <mxGeometry x="-438" y="205" width="50" height="90" as="geometry" />
        </mxCell>
        <mxCell id="MAND4tqDTdyMF2WOXjCk-6" value="" style="swimlane;startSize=0;" vertex="1" parent="WIyWlLk6GJQsqaUBKTNV-1">
          <mxGeometry x="-250" y="170" width="590" height="360" as="geometry" />
        </mxCell>
        <mxCell id="MAND4tqDTdyMF2WOXjCk-14" value="&lt;b&gt;comprar&lt;/b&gt;&lt;div&gt;&lt;b&gt;produto&lt;/b&gt;&lt;/div&gt;" style="strokeWidth=2;html=1;shape=mxgraph.flowchart.start_1;whiteSpace=wrap;" vertex="1" parent="MAND4tqDTdyMF2WOXjCk-6">
          <mxGeometry x="40" y="60" width="100" height="40" as="geometry" />
        </mxCell>
        <mxCell id="MAND4tqDTdyMF2WOXjCk-18" value="&lt;b&gt;login&lt;/b&gt;" style="strokeWidth=2;html=1;shape=mxgraph.flowchart.start_1;whiteSpace=wrap;" vertex="1" parent="MAND4tqDTdyMF2WOXjCk-6">
          <mxGeometry x="70" y="140" width="100" height="40" as="geometry" />
        </mxCell>
        <mxCell id="MAND4tqDTdyMF2WOXjCk-19" value="&amp;lt;&amp;lt;include&amp;gt;&amp;gt;" style="html=1;verticalAlign=bottom;labelBackgroundColor=none;endArrow=open;endFill=0;dashed=1;rounded=0;entryX=0.5;entryY=0;entryDx=0;entryDy=0;entryPerimeter=0;exitX=0.5;exitY=1;exitDx=0;exitDy=0;exitPerimeter=0;" edge="1" parent="MAND4tqDTdyMF2WOXjCk-6" source="MAND4tqDTdyMF2WOXjCk-14" target="MAND4tqDTdyMF2WOXjCk-18">
          <mxGeometry x="1" y="22" width="160" relative="1" as="geometry">
            <mxPoint x="140" y="120" as="sourcePoint" />
            <mxPoint x="230" y="210" as="targetPoint" />
            <mxPoint x="2" y="3" as="offset" />
          </mxGeometry>
        </mxCell>
        <mxCell id="MAND4tqDTdyMF2WOXjCk-21" value="&lt;b&gt;registrar&lt;/b&gt;" style="strokeWidth=2;html=1;shape=mxgraph.flowchart.start_1;whiteSpace=wrap;" vertex="1" parent="MAND4tqDTdyMF2WOXjCk-6">
          <mxGeometry x="20" y="230" width="100" height="40" as="geometry" />
        </mxCell>
        <mxCell id="MAND4tqDTdyMF2WOXjCk-22" value="&amp;lt;&amp;lt;include&amp;gt;&amp;gt;" style="html=1;verticalAlign=bottom;labelBackgroundColor=none;endArrow=open;endFill=0;dashed=1;rounded=0;exitX=0.501;exitY=1.067;exitDx=0;exitDy=0;exitPerimeter=0;entryX=0.5;entryY=0;entryDx=0;entryDy=0;entryPerimeter=0;" edge="1" parent="MAND4tqDTdyMF2WOXjCk-6" source="MAND4tqDTdyMF2WOXjCk-18">
          <mxGeometry x="0.8124" y="-21" width="160" relative="1" as="geometry">
            <mxPoint x="120" y="240" as="sourcePoint" />
            <mxPoint x="70" y="230" as="targetPoint" />
            <mxPoint as="offset" />
          </mxGeometry>
        </mxCell>
        <mxCell id="MAND4tqDTdyMF2WOXjCk-30" value="&lt;b&gt;vender&lt;/b&gt;&lt;div&gt;&lt;b&gt;produto&lt;/b&gt;&lt;/div&gt;" style="strokeWidth=2;html=1;shape=mxgraph.flowchart.start_1;whiteSpace=wrap;" vertex="1" parent="MAND4tqDTdyMF2WOXjCk-6">
          <mxGeometry x="400" y="145" width="100" height="40" as="geometry" />
        </mxCell>
        <mxCell id="MAND4tqDTdyMF2WOXjCk-31" value="&lt;b&gt;login&lt;/b&gt;" style="strokeWidth=2;html=1;shape=mxgraph.flowchart.start_1;whiteSpace=wrap;" vertex="1" parent="MAND4tqDTdyMF2WOXjCk-6">
          <mxGeometry x="400" y="225" width="100" height="40" as="geometry" />
        </mxCell>
        <mxCell id="MAND4tqDTdyMF2WOXjCk-16" value="&amp;lt;&amp;lt;include&amp;gt;&amp;gt;" style="html=1;verticalAlign=bottom;labelBackgroundColor=none;endArrow=open;endFill=0;dashed=1;rounded=0;entryX=0.5;entryY=0;entryDx=0;entryDy=0;entryPerimeter=0;exitX=0.5;exitY=1;exitDx=0;exitDy=0;exitPerimeter=0;" edge="1" parent="MAND4tqDTdyMF2WOXjCk-6" source="MAND4tqDTdyMF2WOXjCk-30" target="MAND4tqDTdyMF2WOXjCk-31">
          <mxGeometry x="0.3333" y="40" width="160" relative="1" as="geometry">
            <mxPoint x="830" y="140" as="sourcePoint" />
            <mxPoint x="670" y="10" as="targetPoint" />
            <mxPoint as="offset" />
          </mxGeometry>
        </mxCell>
        <mxCell id="MAND4tqDTdyMF2WOXjCk-33" value="&lt;b&gt;administrar&amp;nbsp;&lt;/b&gt;&lt;div&gt;&lt;b&gt;produtos&lt;/b&gt;&lt;/div&gt;" style="strokeWidth=2;html=1;shape=mxgraph.flowchart.start_1;whiteSpace=wrap;" vertex="1" parent="MAND4tqDTdyMF2WOXjCk-6">
          <mxGeometry x="340" y="305" width="100" height="40" as="geometry" />
        </mxCell>
        <mxCell id="MAND4tqDTdyMF2WOXjCk-35" value="&amp;lt;&amp;lt;extend&amp;gt;&amp;gt;" style="html=1;verticalAlign=bottom;labelBackgroundColor=none;endArrow=open;endFill=0;dashed=1;rounded=0;entryX=0.5;entryY=0;entryDx=0;entryDy=0;entryPerimeter=0;exitX=0.5;exitY=1;exitDx=0;exitDy=0;exitPerimeter=0;" edge="1" parent="MAND4tqDTdyMF2WOXjCk-6" source="MAND4tqDTdyMF2WOXjCk-31" target="MAND4tqDTdyMF2WOXjCk-33">
          <mxGeometry x="-0.3846" y="33" width="160" relative="1" as="geometry">
            <mxPoint x="380" y="269.40999999999997" as="sourcePoint" />
            <mxPoint x="540" y="269.40999999999997" as="targetPoint" />
            <mxPoint as="offset" />
          </mxGeometry>
        </mxCell>
        <mxCell id="MAND4tqDTdyMF2WOXjCk-36" value="&lt;b&gt;dispor localização&lt;/b&gt;" style="strokeWidth=2;html=1;shape=mxgraph.flowchart.start_1;whiteSpace=wrap;" vertex="1" parent="MAND4tqDTdyMF2WOXjCk-6">
          <mxGeometry x="200" y="230" width="100" height="40" as="geometry" />
        </mxCell>
        <mxCell id="MAND4tqDTdyMF2WOXjCk-42" value="&lt;b&gt;efectuar pagamento&lt;/b&gt;" style="strokeWidth=2;html=1;shape=mxgraph.flowchart.start_1;whiteSpace=wrap;" vertex="1" parent="MAND4tqDTdyMF2WOXjCk-6">
          <mxGeometry x="200" y="60" width="100" height="40" as="geometry" />
        </mxCell>
        <mxCell id="MAND4tqDTdyMF2WOXjCk-43" value="&amp;lt;&amp;lt;include&amp;gt;&amp;gt;" style="html=1;verticalAlign=bottom;labelBackgroundColor=none;endArrow=open;endFill=0;dashed=1;rounded=0;exitX=1;exitY=0.5;exitDx=0;exitDy=0;exitPerimeter=0;entryX=0;entryY=0.5;entryDx=0;entryDy=0;entryPerimeter=0;" edge="1" parent="MAND4tqDTdyMF2WOXjCk-6" source="MAND4tqDTdyMF2WOXjCk-14" target="MAND4tqDTdyMF2WOXjCk-42">
          <mxGeometry width="160" relative="1" as="geometry">
            <mxPoint x="170" y="180" as="sourcePoint" />
            <mxPoint x="330" y="180" as="targetPoint" />
            <mxPoint as="offset" />
          </mxGeometry>
        </mxCell>
        <mxCell id="MAND4tqDTdyMF2WOXjCk-44" value="&lt;b&gt;autenticação&lt;/b&gt;" style="strokeWidth=2;html=1;shape=mxgraph.flowchart.start_1;whiteSpace=wrap;" vertex="1" parent="MAND4tqDTdyMF2WOXjCk-6">
          <mxGeometry x="200" y="140" width="100" height="40" as="geometry" />
        </mxCell>
        <mxCell id="MAND4tqDTdyMF2WOXjCk-45" value="&amp;lt;&amp;lt;include&amp;gt;&amp;gt;" style="html=1;verticalAlign=bottom;labelBackgroundColor=none;endArrow=open;endFill=0;dashed=1;rounded=0;exitX=0.5;exitY=1;exitDx=0;exitDy=0;exitPerimeter=0;entryX=0.5;entryY=0;entryDx=0;entryDy=0;entryPerimeter=0;" edge="1" parent="MAND4tqDTdyMF2WOXjCk-6" source="MAND4tqDTdyMF2WOXjCk-42" target="MAND4tqDTdyMF2WOXjCk-44">
          <mxGeometry x="0.5" y="30" width="160" relative="1" as="geometry">
            <mxPoint x="260" y="120" as="sourcePoint" />
            <mxPoint x="320" y="120" as="targetPoint" />
            <mxPoint as="offset" />
          </mxGeometry>
        </mxCell>
        <mxCell id="MAND4tqDTdyMF2WOXjCk-46" value="&lt;b&gt;autenticação&lt;/b&gt;" style="strokeWidth=2;html=1;shape=mxgraph.flowchart.start_1;whiteSpace=wrap;" vertex="1" parent="MAND4tqDTdyMF2WOXjCk-6">
          <mxGeometry x="465" y="65" width="100" height="40" as="geometry" />
        </mxCell>
        <mxCell id="MAND4tqDTdyMF2WOXjCk-47" value="&amp;lt;&amp;lt;include&amp;gt;&amp;gt;" style="html=1;verticalAlign=bottom;labelBackgroundColor=none;endArrow=open;endFill=0;dashed=1;rounded=0;exitX=0.5;exitY=0;exitDx=0;exitDy=0;exitPerimeter=0;entryX=0.607;entryY=1.05;entryDx=0;entryDy=0;entryPerimeter=0;" edge="1" parent="MAND4tqDTdyMF2WOXjCk-6" source="MAND4tqDTdyMF2WOXjCk-30" target="MAND4tqDTdyMF2WOXjCk-46">
          <mxGeometry x="0.6886" y="-25" width="160" relative="1" as="geometry">
            <mxPoint x="410" y="118" as="sourcePoint" />
            <mxPoint x="360" y="165" as="targetPoint" />
            <mxPoint as="offset" />
          </mxGeometry>
        </mxCell>
        <mxCell id="MAND4tqDTdyMF2WOXjCk-49" value="&lt;b&gt;dispor localização&lt;/b&gt;" style="strokeWidth=2;html=1;shape=mxgraph.flowchart.start_1;whiteSpace=wrap;" vertex="1" parent="MAND4tqDTdyMF2WOXjCk-6">
          <mxGeometry x="340" y="45" width="100" height="40" as="geometry" />
        </mxCell>
        <mxCell id="MAND4tqDTdyMF2WOXjCk-50" value="&amp;lt;&amp;lt;include&amp;gt;&amp;gt;" style="html=1;verticalAlign=bottom;labelBackgroundColor=none;endArrow=open;endFill=0;dashed=1;rounded=0;exitX=0.236;exitY=0.011;exitDx=0;exitDy=0;exitPerimeter=0;entryX=0.554;entryY=1.063;entryDx=0;entryDy=0;entryPerimeter=0;" edge="1" parent="MAND4tqDTdyMF2WOXjCk-6" source="MAND4tqDTdyMF2WOXjCk-30" target="MAND4tqDTdyMF2WOXjCk-49">
          <mxGeometry x="-0.0481" y="39" width="160" relative="1" as="geometry">
            <mxPoint x="352" y="145" as="sourcePoint" />
            <mxPoint x="428" y="107" as="targetPoint" />
            <mxPoint as="offset" />
          </mxGeometry>
        </mxCell>
        <mxCell id="MAND4tqDTdyMF2WOXjCk-29" value="" style="group" vertex="1" connectable="0" parent="WIyWlLk6GJQsqaUBKTNV-1">
          <mxGeometry x="440" y="290" width="50" height="90" as="geometry" />
        </mxCell>
        <mxCell id="MAND4tqDTdyMF2WOXjCk-23" value="Vendedor" style="shape=umlActor;verticalLabelPosition=bottom;verticalAlign=top;html=1;outlineConnect=0;" vertex="1" parent="MAND4tqDTdyMF2WOXjCk-29">
          <mxGeometry width="50" height="90" as="geometry" />
        </mxCell>
        <mxCell id="MAND4tqDTdyMF2WOXjCk-27" value="" style="triangle;whiteSpace=wrap;html=1;rotation=-90;" vertex="1" parent="MAND4tqDTdyMF2WOXjCk-29">
          <mxGeometry x="15" y="50" width="20" height="40" as="geometry" />
        </mxCell>
        <mxCell id="MAND4tqDTdyMF2WOXjCk-39" value="" style="endArrow=classic;html=1;rounded=0;entryX=0;entryY=0.5;entryDx=0;entryDy=0;entryPerimeter=0;exitX=0.5;exitY=0.5;exitDx=0;exitDy=0;exitPerimeter=0;" edge="1" parent="WIyWlLk6GJQsqaUBKTNV-1" source="MAND4tqDTdyMF2WOXjCk-0" target="MAND4tqDTdyMF2WOXjCk-14">
          <mxGeometry width="50" height="50" relative="1" as="geometry">
            <mxPoint x="-350" y="320" as="sourcePoint" />
            <mxPoint x="-300" y="270" as="targetPoint" />
          </mxGeometry>
        </mxCell>
        <mxCell id="MAND4tqDTdyMF2WOXjCk-40" value="" style="endArrow=classic;html=1;rounded=0;entryX=1;entryY=0.5;entryDx=0;entryDy=0;entryPerimeter=0;exitX=0.5;exitY=0.5;exitDx=0;exitDy=0;exitPerimeter=0;" edge="1" parent="WIyWlLk6GJQsqaUBKTNV-1" source="MAND4tqDTdyMF2WOXjCk-23" target="MAND4tqDTdyMF2WOXjCk-30">
          <mxGeometry width="50" height="50" relative="1" as="geometry">
            <mxPoint x="180" y="290" as="sourcePoint" />
            <mxPoint x="230" y="240" as="targetPoint" />
          </mxGeometry>
        </mxCell>
      </root>
    </mxGraphModel>
  </diagram>
</mxfile>
